<?xml version="1.0" encoding="UTF-8"?>
<svg width="24px" height="24px" viewBox="0 0 24 24" version="1.1" xmlns="http://www.w3.org/2000/svg">
    <g stroke="none" stroke-width="1" fill="none" fill-rule="evenodd">
        <path d="M12,15 C13.6568542,15 15,13.6568542 15,12 C15,10.3431458 13.6568542,9 12,9 C10.3431458,9 9,10.3431458 9,12 C9,13.6568542 10.3431458,15 12,15 Z M12,17 C14.7614237,17 17,14.7614237 17,12 C17,9.23857625 14.7614237,7 12,7 C9.23857625,7 7,9.23857625 7,12 C7,14.7614237 9.23857625,17 12,17 Z" fill="#4C51BF" fill-rule="nonzero"></path>
        <path d="M9,3 L7.17,5 L4,5 C2.9,5 2,5.9 2,7 L2,17 C2,18.1 2.9,19 4,19 L20,19 C21.1,19 22,18.1 22,17 L22,7 C22,5.9 21.1,5 20,5 L16.83,5 L15,3 L9,3 Z M20,17 L4,17 L4,7 L16.83,7 L18.66,5.17 L20,5.17 L20,17 Z" fill="#4C51BF" fill-rule="nonzero"></path>
    </g>
</svg> 